# Blender v2.76 (sub 0) OBJ File: 'snowman.blend'
# www.blender.org
mtllib snowman.mtl
o Cube.009_Cube.010
v -0.000000 4.217231 -0.700515
v 0.169289 4.314970 -0.700515
v 0.169289 4.510448 -0.700515
v -0.000000 4.608186 -0.700515
v -0.000000 4.412708 -1.337557
v -0.169289 4.510447 -0.700515
v -0.169289 4.314970 -0.700515
v 0.177172 4.536090 -0.445850
v 0.177172 4.900153 -0.445850
v 0.246768 4.605686 -0.809913
v 0.246768 4.830557 -0.809913
v 0.541235 4.536090 -0.445850
v 0.541235 4.900154 -0.445850
v 0.471639 4.605686 -0.809913
v 0.471639 4.830557 -0.809913
v -0.556932 4.536089 -0.445850
v -0.556932 4.900152 -0.445850
v -0.487336 4.605685 -0.809913
v -0.487336 4.830556 -0.809913
v -0.192869 4.536089 -0.445850
v -0.192869 4.900152 -0.445850
v -0.262465 4.605685 -0.809913
v -0.262465 4.830556 -0.809913
v -0.147598 3.174719 -0.960414
v -0.147598 3.538783 -0.960414
v -0.078002 3.244315 -1.324477
v -0.078002 3.469187 -1.324477
v 0.216466 3.174720 -0.960414
v 0.216466 3.538783 -0.960414
v 0.146870 3.244315 -1.324477
v 0.146870 3.469187 -1.324477
v -0.147598 2.668375 -0.960414
v -0.147598 3.032438 -0.960414
v -0.078002 2.737970 -1.324477
v -0.078002 2.962842 -1.324477
v 0.216466 2.668375 -0.960414
v 0.216466 3.032438 -0.960414
v 0.146870 2.737971 -1.324477
v 0.146870 2.962842 -1.324477
v -0.147598 1.127295 -1.496704
v -0.147598 1.491359 -1.496704
v -0.078002 1.196891 -1.860767
v -0.078002 1.421763 -1.860767
v 0.216466 1.127296 -1.496704
v 0.216466 1.491359 -1.496704
v 0.146870 1.196892 -1.860767
v 0.146870 1.421763 -1.860767
v -0.147598 0.320088 -1.550017
v -0.147598 0.684151 -1.550017
v -0.078002 0.389684 -1.914081
v -0.078002 0.614555 -1.914081
v 0.216466 0.320088 -1.550018
v 0.216466 0.684151 -1.550018
v 0.146870 0.389684 -1.914081
v 0.146870 0.614555 -1.914081
v 0.911999 3.166455 0.100181
v 1.138171 3.350465 0.100181
v 0.911999 3.166455 -0.191390
v 1.138172 3.350465 -0.191390
v 1.096008 2.940282 0.100181
v 1.322181 3.124292 0.100181
v 1.096008 2.940282 -0.191390
v 1.322181 3.124292 -0.191390
v 1.628777 3.749612 0.100181
v 1.628777 3.749612 -0.191390
v 1.812787 3.523440 0.100181
v 1.812787 3.523439 -0.191390
v 2.236197 4.243798 0.100181
v 2.236197 4.243798 -0.191390
v 2.420207 4.017625 0.100181
v 2.420207 4.017625 -0.191390
v 2.366282 4.349633 0.100181
v 2.366282 4.349633 -0.191390
v 2.550292 4.123460 0.100181
v 2.550292 4.123460 -0.191390
v -0.911999 3.166453 -0.100182
v -1.138172 3.350462 -0.100181
v -0.911999 3.166453 0.191390
v -1.138172 3.350463 0.191390
v -1.096008 2.940280 -0.100181
v -1.322181 3.124289 -0.100181
v -1.096008 2.940280 0.191390
v -1.322181 3.124290 0.191390
v -1.628777 3.749609 -0.100181
v -1.628777 3.749609 0.191390
v -1.812787 3.523436 -0.100181
v -1.812787 3.523436 0.191390
v -2.236197 4.243793 -0.100181
v -2.236197 4.243793 0.191390
v -2.420207 4.017620 -0.100181
v -2.420207 4.017620 0.191390
v -2.366283 4.349627 -0.100181
v -2.366283 4.349627 0.191390
v -2.550292 4.123455 -0.100181
v -2.550292 4.123455 0.191390
v -0.000000 -1.266909 -0.000000
v 1.538683 -0.091449 1.117905
v -0.587713 -0.091451 1.808825
v -1.901930 -0.091454 0.000000
v -0.587713 -0.091453 -1.808825
v 1.538683 -0.091450 -1.117906
v 0.587713 1.810491 1.808824
v -1.538683 1.810489 1.117906
v -1.538683 1.810488 -1.117906
v 0.587713 1.810489 -1.808825
v 1.901930 1.810492 -0.000000
v -0.000000 2.985947 -0.000000
v -0.000000 1.340904 -0.000000
v 0.870498 2.196742 1.076932
v -0.755225 2.196740 1.160682
v -1.337266 2.196738 -0.359602
v -0.071229 2.196739 -1.382923
v 1.293228 2.196741 -0.495089
v 0.071228 3.581521 1.382923
v -1.293228 3.581519 0.495089
v -0.870499 3.581519 -1.076933
v 0.755225 3.581521 -1.160683
v 1.337266 3.581522 0.359602
v -0.000000 4.437357 -0.000000
v -0.000000 3.449335 -0.000000
v 0.570453 4.010181 0.705732
v -0.494912 4.010180 0.760615
v -0.876334 4.010179 -0.235653
v -0.046677 4.010179 -0.906253
v 0.847475 4.010180 -0.324440
v 0.046677 4.917651 0.906253
v -0.847475 4.917649 0.324440
v -0.570453 4.917649 -0.705733
v 0.494912 4.917650 -0.760616
v 0.876334 4.917651 0.235653
v -0.000000 5.478495 -0.000000
vn -0.982200 -0.000000 -0.187800
vn -0.000000 0.000000 -1.000000
vn 0.982200 0.000000 -0.187800
vn 0.000000 0.000000 1.000000
vn -0.000000 -0.982200 -0.187800
vn -0.000000 0.982200 -0.187800
vn -0.631100 0.775700 -0.000000
vn 0.631100 -0.775700 0.000000
vn -0.775700 -0.631100 -0.000000
vn 0.775700 0.631100 -0.000000
vn 0.631100 0.775700 -0.000000
vn -0.631100 -0.775700 0.000000
vn 0.775700 -0.631100 0.000000
vn -0.775700 0.631100 0.000000
vn -0.966500 0.000000 -0.256800
vn 0.483200 -0.837000 -0.256800
vn -0.483200 0.837000 -0.256800
vn 0.483200 0.837000 -0.256800
vn -0.483200 -0.837000 -0.256800
vn 0.966500 0.000000 -0.256800
vn 0.187600 -0.794700 0.577400
vn 0.607100 -0.794700 0.000000
vn -0.491100 -0.794700 0.356800
vn -0.491100 -0.794700 -0.356800
vn 0.187600 -0.794700 -0.577400
vn 0.982200 -0.187600 0.000000
vn 0.303500 -0.187600 0.934200
vn -0.794600 -0.187600 0.577400
vn -0.794600 -0.187600 -0.577400
vn 0.303500 -0.187600 -0.934200
vn 0.794600 0.187600 0.577400
vn -0.303500 0.187600 0.934200
vn -0.982200 0.187600 -0.000000
vn -0.303500 0.187600 -0.934200
vn 0.794600 0.187600 -0.577400
vn 0.491100 0.794700 0.356800
vn -0.187600 0.794700 0.577400
vn -0.607100 0.794700 -0.000000
vn -0.187600 0.794700 -0.577400
vn 0.491100 0.794700 -0.356800
vn 0.031200 -0.794700 0.606300
vn 0.586200 -0.794700 0.157600
vn -0.566900 -0.794700 0.217100
vn -0.381600 -0.794700 -0.472100
vn 0.331100 -0.794700 -0.508800
vn 0.948500 -0.187600 0.255100
vn 0.050500 -0.187600 0.980900
vn -0.917300 -0.187600 0.351200
vn -0.617500 -0.187600 -0.763900
vn 0.535700 -0.187600 -0.823300
vn 0.617500 0.187600 0.763900
vn -0.535700 0.187600 0.823300
vn -0.948500 0.187600 -0.255100
vn -0.050500 0.187600 -0.980900
vn 0.917300 0.187600 -0.351200
vn 0.381600 0.794700 0.472100
vn -0.331100 0.794700 0.508800
vn -0.586200 0.794700 -0.157600
vn -0.031200 0.794700 -0.606300
vn 0.566900 0.794700 -0.217100
usemtl bl.005
s off
f 11//1 10//1 8//1
f 11//2 15//2 14//2
f 15//3 13//3 12//3
f 9//4 8//4 12//4
f 10//5 14//5 12//5
f 15//6 11//6 9//6
f 19//1 18//1 16//1
f 23//2 22//2 18//2
f 21//3 20//3 22//3
f 17//4 16//4 20//4
f 18//5 22//5 20//5
f 23//6 19//6 17//6
f 59//7 58//7 56//7
f 63//2 62//2 58//2
f 63//8 61//8 60//8
f 61//4 57//4 56//4
f 58//9 62//9 60//9
f 59//7 57//7 64//7
f 65//2 69//2 71//2
f 57//4 61//4 66//4
f 61//8 63//8 67//8
f 59//2 65//2 67//2
f 69//2 73//2 75//2
f 66//8 67//8 71//8
f 66//4 70//4 68//4
f 65//7 64//7 68//7
f 74//10 75//10 73//10
f 70//8 71//8 75//8
f 70//4 74//4 72//4
f 68//7 72//7 73//7
f 77//11 79//11 78//11
f 83//4 82//4 78//4
f 81//12 80//12 82//12
f 77//2 76//2 80//2
f 76//13 78//13 82//13
f 79//11 77//11 84//11
f 85//4 89//4 91//4
f 81//2 86//2 84//2
f 83//12 87//12 86//12
f 79//4 85//4 87//4
f 91//4 89//4 93//4
f 87//12 91//12 90//12
f 86//2 90//2 88//2
f 85//11 84//11 88//11
f 94//14 95//14 93//14
f 91//12 95//12 94//12
f 90//2 94//2 92//2
f 89//11 88//11 92//11
f 9//1 11//1 8//1
f 10//2 11//2 14//2
f 14//3 15//3 12//3
f 13//4 9//4 12//4
f 8//5 10//5 12//5
f 13//6 15//6 9//6
f 17//1 19//1 16//1
f 19//2 23//2 18//2
f 23//3 21//3 22//3
f 21//4 17//4 20//4
f 16//5 18//5 20//5
f 21//6 23//6 17//6
f 57//7 59//7 56//7
f 59//2 63//2 58//2
f 62//8 63//8 60//8
f 60//4 61//4 56//4
f 56//9 58//9 60//9
f 65//7 59//7 64//7
f 67//2 65//2 71//2
f 64//4 57//4 66//4
f 66//8 61//8 67//8
f 63//2 59//2 67//2
f 71//2 69//2 75//2
f 70//8 66//8 71//8
f 64//4 66//4 68//4
f 69//7 65//7 68//7
f 72//10 74//10 73//10
f 74//8 70//8 75//8
f 68//4 70//4 72//4
f 69//7 68//7 73//7
f 76//11 77//11 78//11
f 79//4 83//4 78//4
f 83//12 81//12 82//12
f 81//2 77//2 80//2
f 80//13 76//13 82//13
f 85//11 79//11 84//11
f 87//4 85//4 91//4
f 77//2 81//2 84//2
f 81//12 83//12 86//12
f 83//4 79//4 87//4
f 95//4 91//4 93//4
f 86//12 87//12 90//12
f 84//2 86//2 88//2
f 89//11 85//11 88//11
f 92//14 94//14 93//14
f 90//12 91//12 94//12
f 88//2 90//2 92//2
f 93//11 89//11 92//11
usemtl carrot.001
f 6//15 5//15 7//15
f 1//16 5//16 2//16
f 4//17 5//17 6//17
f 3//18 5//18 4//18
f 7//19 5//19 1//19
f 2//20 5//20 3//20
f 2//4 6//4 7//4
f 7//4 1//4 2//4
f 2//4 3//4 4//4
f 4//4 6//4 2//4
usemtl bl.006
f 27//1 26//1 24//1
f 27//2 31//2 30//2
f 31//3 29//3 28//3
f 25//4 24//4 28//4
f 26//5 30//5 28//5
f 29//6 31//6 27//6
f 25//1 27//1 24//1
f 26//2 27//2 30//2
f 30//3 31//3 28//3
f 29//4 25//4 28//4
f 24//5 26//5 28//5
f 25//6 29//6 27//6
usemtl bl.007
f 35//1 34//1 32//1
f 35//2 39//2 38//2
f 39//3 37//3 36//3
f 33//4 32//4 36//4
f 34//5 38//5 36//5
f 39//6 35//6 33//6
f 33//1 35//1 32//1
f 34//2 35//2 38//2
f 38//3 39//3 36//3
f 37//4 33//4 36//4
f 32//5 34//5 36//5
f 37//6 39//6 33//6
usemtl bl.008
f 43//1 42//1 40//1
f 43//2 47//2 46//2
f 47//3 45//3 44//3
f 41//4 40//4 44//4
f 42//5 46//5 44//5
f 47//6 43//6 41//6
f 41//1 43//1 40//1
f 42//2 43//2 46//2
f 46//3 47//3 44//3
f 45//4 41//4 44//4
f 40//5 42//5 44//5
f 45//6 47//6 41//6
usemtl bl.009
f 51//1 50//1 48//1
f 51//2 55//2 54//2
f 55//3 53//3 52//3
f 49//4 48//4 52//4
f 50//5 54//5 52//5
f 55//6 51//6 49//6
f 49//1 51//1 48//1
f 50//2 51//2 54//2
f 54//3 55//3 52//3
f 53//4 49//4 52//4
f 48//5 50//5 52//5
f 53//6 55//6 49//6
usemtl snow.001
f 96//21 97//21 98//21
f 97//22 96//22 101//22
f 96//23 98//23 99//23
f 96//24 99//24 100//24
f 96//25 100//25 101//25
f 97//26 101//26 106//26
f 98//27 97//27 102//27
f 99//28 98//28 103//28
f 100//29 99//29 104//29
f 101//30 100//30 105//30
f 97//31 106//31 102//31
f 98//32 102//32 103//32
f 99//33 103//33 104//33
f 100//34 104//34 105//34
f 101//35 105//35 106//35
f 102//36 106//36 107//36
f 103//37 102//37 107//37
f 104//38 103//38 107//38
f 105//39 104//39 107//39
f 106//40 105//40 107//40
f 108//41 109//41 110//41
f 109//42 108//42 113//42
f 108//43 110//43 111//43
f 108//44 111//44 112//44
f 108//45 112//45 113//45
f 109//46 113//46 118//46
f 110//47 109//47 114//47
f 111//48 110//48 115//48
f 112//49 111//49 116//49
f 113//50 112//50 117//50
f 109//51 118//51 114//51
f 110//52 114//52 115//52
f 111//53 115//53 116//53
f 112//54 116//54 117//54
f 113//55 117//55 118//55
f 114//56 118//56 119//56
f 115//57 114//57 119//57
f 116//58 115//58 119//58
f 117//59 116//59 119//59
f 118//60 117//60 119//60
f 120//41 121//41 122//41
f 121//42 120//42 125//42
f 120//43 122//43 123//43
f 120//44 123//44 124//44
f 120//45 124//45 125//45
f 121//46 125//46 130//46
f 122//47 121//47 126//47
f 123//48 122//48 127//48
f 124//49 123//49 128//49
f 125//50 124//50 129//50
f 121//51 130//51 126//51
f 122//52 126//52 127//52
f 123//53 127//53 128//53
f 124//54 128//54 129//54
f 125//55 129//55 130//55
f 126//56 130//56 131//56
f 127//57 126//57 131//57
f 128//58 127//58 131//58
f 129//59 128//59 131//59
f 130//60 129//60 131//60
