# Blender v2.79 (sub 0) OBJ File: ''
# www.blender.org
mtllib mushroom.mtl
o Icosphere.001
v 0.156274 0.932957 0.113537
v -0.059688 0.932957 0.183708
v -0.193163 0.932957 0.000000
v -0.059688 0.932957 -0.183708
v 0.156274 0.932957 -0.113537
v 0.261700 1.138224 0.805444
v -0.685155 1.138224 0.497788
v -0.685155 1.138224 -0.497788
v 0.261700 1.138224 -0.805444
v 0.846902 1.138224 0.000000
v -0.000000 1.540343 -0.000000
v 0.000000 -0.000178 0.000000
v -0.151761 0.304491 0.151761
v 0.187708 0.777436 0.187708
v -0.151761 0.304491 -0.151761
v -0.187708 0.777436 -0.187708
v 0.151761 0.304491 0.151761
v -0.187708 0.777436 0.187708
v 0.151761 0.304491 -0.151761
v 0.187708 0.777436 -0.187708
v -0.187708 0.939815 0.187708
v 0.099880 1.014132 -0.187708
v 0.187708 0.931410 0.187708
v -0.079347 1.014132 -0.187708
v -0.187708 0.916084 -0.187708
v -0.187708 1.014132 -0.062216
v 0.187708 1.014132 -0.104002
v 0.187708 0.940208 -0.187708
v 0.187708 1.014132 0.092930
v 0.095972 1.014132 0.187708
v -0.100955 1.014132 0.187708
v -0.187708 1.014132 0.111330
vn 0.2849 -0.9586 0.0000
vn 0.0880 -0.9586 0.2710
vn -0.2305 -0.9586 0.1675
vn -0.2305 -0.9586 -0.1675
vn 0.0880 -0.9586 -0.2710
vn 0.3115 -0.9229 0.2263
vn -0.1190 -0.9229 0.3662
vn -0.3850 -0.9229 0.0000
vn -0.1190 -0.9229 -0.3662
vn 0.3115 -0.9229 -0.2263
vn 0.4095 0.8624 0.2975
vn -0.1564 0.8624 0.4814
vn -0.5062 0.8624 0.0000
vn -0.1564 0.8624 -0.4814
vn 0.4095 0.8624 -0.2975
vn -0.8951 -0.4459 0.0000
vn 0.0000 -0.4459 -0.8951
vn 0.8951 -0.4459 0.0000
vn 0.0000 -0.4459 0.8951
vn 0.0000 -0.0758 0.9971
vn -0.9971 -0.0758 0.0000
vn 1.0000 0.0000 0.0000
vn 0.0000 -0.0758 -0.9971
vn 0.9971 -0.0758 0.0000
vn 0.5336 0.6339 -0.5598
vn 0.0000 0.0000 1.0000
vn -1.0000 0.0000 0.0000
vn 0.0000 0.0000 -1.0000
vn 0.5620 0.6232 0.5439
vn -0.5805 0.6416 -0.5013
vn 0.0000 1.0000 0.0000
vn -0.5232 0.6108 0.5943
usemtl Material.003
s off
f 1//1 5//1 10//1
f 2//2 1//2 6//2
f 3//3 2//3 7//3
f 4//4 3//4 8//4
f 5//5 4//5 9//5
f 1//6 10//6 6//6
f 2//7 6//7 7//7
f 3//8 7//8 8//8
f 4//9 8//9 9//9
f 5//10 9//10 10//10
f 6//11 10//11 11//11
f 7//12 6//12 11//12
f 8//13 7//13 11//13
f 9//14 8//14 11//14
f 10//15 9//15 11//15
usemtl Material.004
f 12//16 13//16 15//16
f 12//17 15//17 19//17
f 12//18 19//18 17//18
f 12//19 17//19 13//19
f 17//20 18//20 13//20
f 13//21 16//21 15//21
f 27//22 29//22 20//22
f 15//23 20//23 19//23
f 19//24 14//24 17//24
f 27//25 28//25 22//25
f 30//26 31//26 18//26
f 32//27 26//27 18//27
f 24//28 22//28 20//28
f 23//29 29//29 30//29
f 25//30 26//30 24//30
f 30//31 29//31 26//31
f 21//32 31//32 32//32
f 17//20 14//20 18//20
f 13//21 18//21 16//21
f 23//22 14//22 29//22
f 14//22 20//22 29//22
f 20//22 28//22 27//22
f 15//23 16//23 20//23
f 19//24 20//24 14//24
f 21//26 18//26 31//26
f 18//26 14//26 30//26
f 14//26 23//26 30//26
f 25//27 16//27 26//27
f 16//27 18//27 26//27
f 18//27 21//27 32//27
f 28//28 20//28 22//28
f 20//28 16//28 24//28
f 16//28 25//28 24//28
f 29//31 27//31 24//31
f 27//31 22//31 24//31
f 24//31 26//31 29//31
f 26//31 32//31 31//31
f 31//31 30//31 26//31
