# Blender v2.79 (sub 0) OBJ File: ''
# www.blender.org
mtllib tree.mtl
o Cylinder.001
v -0.062710 0.001929 -1.755465
v -0.062710 1.997151 -1.212549
v 1.491000 0.001929 -0.626629
v 0.974656 1.997151 -0.458859
v 0.897535 0.001929 1.199866
v 0.578417 1.997151 0.760638
v -1.022956 0.001929 1.199866
v -0.703837 1.997151 0.760638
v -1.616420 0.001929 -0.626629
v -1.100076 1.997151 -0.458859
v -0.062710 4.515627 -0.894148
v 0.671838 4.515627 -0.360467
v 0.391265 4.515627 0.503046
v -0.516686 4.515627 0.503046
v -0.797258 4.515627 -0.360467
v -0.062710 6.968383 -0.791711
v 0.574415 6.968383 -0.328813
v 0.331055 6.968383 0.420173
v -0.456475 6.968383 0.420173
v -0.699835 6.968383 -0.328813
v -0.705211 7.605499 -0.520671
v -0.427328 7.900359 -0.226300
v -0.533470 7.787733 0.250003
v -0.876953 7.423266 0.250003
v -0.983094 7.310641 -0.226300
v -1.515314 8.176604 -0.350527
v -1.393068 8.387023 -0.173722
v -1.439762 8.306650 0.112354
v -1.590865 8.046559 0.112354
v -1.637559 7.966187 -0.173722
v -2.291777 8.627702 -0.304090
v -2.191718 8.799932 -0.159372
v -2.229937 8.734146 0.074785
v -2.353617 8.521258 0.074785
v -2.391837 8.455472 -0.159373
v 0.138922 8.047634 -1.717529
v 0.383499 7.859414 -1.649379
v 0.483975 7.931308 -1.358475
v 0.301496 8.163961 -1.246837
v 0.088241 8.235854 -1.468745
v 1.714278 9.360026 -1.903001
v 1.958855 9.171805 -1.834851
v 2.059330 9.243700 -1.543947
v 1.876851 9.476353 -1.432309
v 1.663597 9.548245 -1.654217
v 0.460073 8.237164 -2.573380
v 0.546104 8.048944 -2.812254
v 0.843634 8.120837 -2.890967
v 0.941488 8.353490 -2.700741
v 0.704434 8.425383 -2.504461
v -1.383216 8.399594 1.140844
v -1.111379 8.597944 1.124753
v -0.911657 8.522181 1.385268
v -1.060059 8.277008 1.562366
v -1.351499 8.201246 1.411304
v -1.347420 8.399594 2.001250
v -1.119883 8.565620 1.987781
v -0.952708 8.502204 2.205841
v -1.076926 8.296986 2.354079
v -1.320872 8.233570 2.227635
v -0.914484 8.556554 -2.100816
v -0.690944 8.681090 -2.165135
v -0.658838 8.882596 -1.997858
v -0.862536 8.882596 -1.830156
v -1.020534 8.681090 -1.893787
v 0.262906 6.156914 0.323941
v -0.062435 5.977676 -0.694740
v 0.488640 5.889564 -0.302907
v -0.608170 5.947449 -0.301172
v -0.389117 6.133392 0.325787
v 1.151772 8.170501 1.050132
v 0.926016 8.510505 0.977771
v 1.099970 8.358487 0.857027
v 0.795175 8.365693 1.145702
v 0.957175 8.166660 1.206094
v 1.088093 8.379880 1.854463
v 0.939073 8.815518 1.589779
v 1.207690 8.620742 1.627926
v 0.669839 8.629976 1.633523
v 0.769397 8.374960 1.831411
v 2.281123 8.425349 0.696112
v 2.065494 8.789756 0.830509
v 2.087358 8.626828 0.604615
v 2.112087 8.634552 1.053866
v 2.273741 8.421234 0.963292
v -2.318933 7.626959 1.395040
v -0.315535 8.530025 2.658046
v -1.168173 8.530025 4.542315
v -3.611145 8.530025 2.077149
v -4.268301 8.530025 -1.330679
v -2.231503 8.530025 -0.971633
v -0.369564 9.991226 4.120760
v -2.406363 9.991226 3.761714
v -4.322330 9.991226 0.132034
v -3.469692 9.991226 -1.752235
v -1.026721 9.991226 0.712931
v -2.318933 10.894293 1.395040
v 2.284599 7.626959 -0.791514
v 3.372375 8.530025 0.688115
v 1.688355 8.530025 1.450890
v 0.828309 8.530025 -0.885274
v 1.980830 8.530025 -3.091862
v 3.553133 8.530025 -2.119437
v 2.588368 9.991226 1.508835
v 1.016065 9.991226 0.536409
v 1.196822 9.991226 -2.271142
v 2.880842 9.991226 -3.033917
v 3.740889 9.991226 -0.697754
v 2.284599 10.894293 -0.791514
v -1.370494 7.749073 -3.076191
v 0.195732 8.082941 -4.350380
v 1.101669 7.711505 -2.782240
v -0.935412 8.546711 -1.620314
v -3.100326 9.434329 -2.470385
v -2.401222 9.147696 -4.157644
v 1.598815 9.086922 -3.681998
v 0.899712 9.373555 -1.994738
v -1.697242 10.438311 -1.802002
v -2.603179 10.809746 -3.370142
v -0.566099 9.974540 -4.532068
v -0.131016 10.772179 -3.076191
v 1.806396 6.993623 3.460614
v 3.547516 7.896689 4.044617
v 2.609321 7.896689 5.637582
v 0.561491 7.896689 4.222050
v 0.234098 7.896689 1.754226
v 2.079560 7.896689 1.644591
v 3.378693 9.357891 5.167002
v 1.533231 9.357891 5.276637
v 0.065276 9.357891 2.876611
v 1.003471 9.357891 1.283646
v 3.051301 9.357891 2.699179
v 1.806396 10.260957 3.460614
vn 0.5740 0.2150 -0.7901
vn 0.9288 0.2150 0.3018
vn -0.0000 0.2150 0.9766
vn 0.5847 0.1018 -0.8048
vn -0.9288 0.2150 0.3018
vn -0.5740 0.2150 -0.7901
vn 0.0000 -1.0000 -0.0000
vn -0.5854 0.1097 -0.8033
vn -0.0000 0.1018 0.9948
vn -0.9461 0.1018 0.3074
vn 0.9461 0.1018 0.3074
vn -0.5847 0.1018 -0.8048
vn -0.6853 -0.6596 0.3087
vn -0.0000 0.1089 0.9941
vn 0.5841 0.1116 -0.8040
vn -0.9451 0.1121 0.3071
vn 0.9491 0.1066 0.2963
vn -0.4435 -0.3884 -0.8077
vn 0.6216 0.7200 0.3087
vn -0.5704 -0.2412 -0.7851
vn -0.1932 0.1821 0.9641
vn 0.4768 0.5847 -0.6563
vn 0.2589 0.5288 -0.8083
vn -0.1265 0.0735 0.9892
vn 0.2406 0.5628 -0.7908
vn -0.6627 -0.6858 0.3008
vn 0.4369 0.8449 0.3087
vn -0.7879 0.4107 -0.4589
vn -0.5135 -0.8006 0.3088
vn 0.4412 0.8426 0.3087
vn -0.3312 -0.4868 -0.8083
vn -0.0361 0.0210 0.9991
vn 0.6612 -0.7188 -0.2148
vn -0.9397 0.2047 0.2740
vn 0.5527 0.3405 0.7607
vn -0.8132 -0.4797 -0.3296
vn 0.2526 0.6024 0.7572
vn 0.4489 -0.6286 -0.6351
vn -0.6377 0.7697 0.0300
vn 0.5653 -0.5983 0.5678
vn -0.2915 0.2183 -0.9313
vn -0.0854 0.2392 0.9672
vn 0.0878 0.9693 0.2296
vn 0.5385 -0.8424 0.0222
vn -0.6008 0.7979 -0.0488
vn 0.8028 0.4330 0.4098
vn -0.9599 -0.2224 -0.1705
vn 0.3107 -0.8020 0.5101
vn 0.0605 0.8405 -0.5384
vn -0.8984 -0.3383 -0.2802
vn -0.8251 0.2989 -0.4795
vn -0.8751 0.2175 -0.4322
vn -0.9939 -0.1025 0.0413
vn -0.8649 0.5011 -0.0311
vn 0.5883 -0.8083 -0.0245
vn -0.2371 0.9710 -0.0296
vn -0.3100 -0.9500 -0.0386
vn -0.8372 -0.5365 -0.1061
vn 0.0000 0.7617 0.6479
vn 0.5394 -0.3975 -0.7424
vn -0.7236 0.3868 0.5716
vn 0.7132 0.6615 0.2317
vn 0.0068 -0.1118 0.9937
vn -0.5859 -0.0791 -0.8065
vn 0.5713 -0.0651 -0.8181
vn -0.9343 -0.0745 0.3485
vn 0.9447 -0.1157 0.3069
vn 0.0715 -0.5689 0.8193
vn -0.5518 0.4876 -0.6765
vn 0.4445 0.0915 -0.8911
vn 0.4733 -0.6381 0.6073
vn -0.2286 0.9376 -0.2622
vn 0.7724 0.6349 0.0205
vn 0.5443 -0.6711 0.5034
vn -0.9808 -0.0960 0.1697
vn -0.5787 -0.7249 0.3736
vn 0.2298 -0.9369 0.2636
vn 0.0064 0.2951 0.9554
vn -0.1214 0.8031 0.5834
vn -0.1457 -0.5218 -0.8405
vn -0.3480 0.7441 -0.5703
vn -0.5842 0.1104 -0.8041
vn -0.7559 -0.6069 0.2456
vn -0.0011 0.1084 0.9941
vn 0.5876 0.1092 -0.8018
vn -0.9481 0.1076 0.2993
vn 0.9450 0.1131 0.3070
vn -0.4620 -0.3977 -0.7927
vn 0.6765 0.7029 0.2198
vn -0.5740 -0.2406 -0.7828
vn -0.0000 0.2033 0.9791
vn 0.2317 0.5692 -0.7889
vn -0.0978 0.0921 0.9909
vn 0.2186 0.5502 -0.8059
vn -0.6586 -0.6861 0.3090
vn 0.4424 0.8457 0.2986
vn -0.8665 0.2211 0.4476
vn -0.5135 -0.8006 0.3087
vn 0.3516 -0.7374 -0.5768
vn -0.8769 -0.3870 -0.2849
vn 0.9788 -0.0072 0.2048
vn 0.0000 -0.8126 -0.5828
vn -0.4007 0.7316 0.5516
vn 0.5130 0.7928 0.3292
vn 0.2002 -0.9711 -0.1303
vn -0.8326 0.3467 -0.4319
vn 0.8649 -0.4811 0.1435
vn -0.5029 -0.7847 -0.3625
vn 0.5009 -0.6391 0.5836
vn 0.5388 0.7850 -0.3057
vn -0.6254 -0.7335 0.2662
vn -0.9631 -0.2581 -0.0763
vn -0.6383 0.6015 -0.4804
vn -0.4480 -0.6473 -0.6166
vn 0.3868 0.7935 0.4698
vn 0.1049 -0.5985 -0.7943
vn -0.9389 0.1595 0.3051
vn 0.8849 0.2058 -0.4178
vn -0.0000 -0.1178 0.9930
vn -0.5806 -0.0741 -0.8108
vn 0.5860 -0.0788 -0.8065
vn -0.9452 -0.1110 0.3071
vn 0.9297 -0.0652 0.3626
vn -0.5884 -0.2199 0.7781
vn -0.0173 0.4069 -0.9133
vn 0.8944 -0.4037 -0.1928
vn 0.8416 -0.4852 0.2373
vn 0.0080 0.9494 -0.3139
vn 0.9231 0.3833 0.0295
vn 0.8392 -0.4937 0.2281
vn -0.9354 0.3171 -0.1566
vn -0.4722 -0.8123 0.3423
vn 0.2174 -0.9760 -0.0090
vn 0.2201 -0.2352 0.9467
vn -0.1213 0.7965 0.5923
vn 0.0153 -0.7144 -0.6996
vn -0.2203 0.4396 -0.8708
vn 0.3273 -0.9332 0.1481
vn 0.5369 -0.7947 -0.2834
vn -0.3854 -0.8400 0.3819
vn -0.5328 -0.8400 0.1027
vn 0.0624 -0.9332 -0.3538
vn 0.8687 -0.1876 -0.4585
vn 0.8519 -0.3544 0.3855
vn -0.6928 -0.2203 0.6866
vn -0.9578 -0.2203 0.1847
vn 0.1623 -0.3544 -0.9209
vn 0.9578 0.2203 -0.1847
vn -0.1623 0.3544 0.9209
vn -0.8687 0.1876 0.4585
vn -0.8519 0.3544 -0.3855
vn 0.6928 0.2203 -0.6866
vn 0.5328 0.8400 -0.1027
vn -0.0624 0.9332 0.3538
vn -0.5369 0.7947 0.2834
vn -0.3273 0.9332 -0.1481
vn 0.3854 0.8400 -0.3819
vn 0.1853 -0.8935 0.4091
vn 0.6063 -0.7943 0.0390
vn -0.5260 -0.8281 0.1936
vn -0.4968 -0.8281 -0.2595
vn 0.2362 -0.8935 -0.3820
vn 0.9803 -0.1874 0.0631
vn 0.3962 -0.2788 0.8748
vn -0.9174 -0.2107 0.3377
vn -0.8665 -0.2107 -0.4526
vn 0.5052 -0.2788 -0.8168
vn 0.8665 0.2107 0.4526
vn -0.5052 0.2788 0.8168
vn -0.9803 0.1874 -0.0631
vn -0.3962 0.2788 -0.8748
vn 0.9174 0.2107 -0.3377
vn 0.4968 0.8281 0.2595
vn -0.2362 0.8935 0.3820
vn -0.6063 0.7943 -0.0390
vn -0.1853 0.8935 -0.4091
vn 0.5260 0.8281 -0.1936
vn 0.0135 -0.9712 -0.2379
vn -0.3398 -0.7191 -0.6061
vn -0.0721 -0.8655 0.4957
vn -0.4913 -0.6936 0.5268
vn -0.7182 -0.6712 -0.1836
vn -0.1333 -0.1478 -0.9800
vn 0.6480 -0.5669 -0.5086
vn 0.3422 -0.3680 0.8645
vn -0.3888 -0.0683 0.9188
vn -0.9167 0.0746 -0.3925
vn 0.3888 0.0683 -0.9188
vn 0.9167 -0.0746 0.3925
vn 0.1333 0.1478 0.9800
vn -0.6480 0.5669 0.5086
vn -0.3422 0.3680 -0.8645
vn 0.4913 0.6936 -0.5268
vn 0.7182 0.6712 0.1836
vn 0.3398 0.7191 0.6061
vn -0.0135 0.9712 0.2379
vn 0.0721 0.8655 -0.4957
vn 0.3870 -0.8935 0.2279
vn 0.5183 -0.7943 -0.3170
vn -0.3187 -0.8281 0.4611
vn -0.5557 -0.8281 0.0737
vn -0.0266 -0.8935 -0.4483
vn 0.8380 -0.1874 -0.5125
vn 0.8275 -0.2788 0.4874
vn -0.5558 -0.2107 0.8041
vn -0.9691 -0.2107 0.1286
vn -0.0570 -0.2788 -0.9587
vn 0.9691 0.2107 -0.1286
vn 0.0570 0.2788 0.9587
vn -0.8380 0.1874 0.5125
vn -0.8275 0.2788 -0.4874
vn 0.5558 0.2107 -0.8041
vn 0.5557 0.8281 -0.0737
vn 0.0266 0.8935 0.4483
vn -0.5183 0.7943 0.3170
vn -0.3870 0.8935 -0.2279
vn 0.3187 0.8281 -0.4611
usemtl wood.001
s off
f 2//1 3//1 1//1
f 4//2 5//2 3//2
f 6//3 7//3 5//3
f 2//4 12//4 4//4
f 7//5 10//5 9//5
f 10//6 1//6 9//6
f 3//7 7//7 9//7
f 11//8 69//8 67//8
f 6//9 14//9 8//9
f 8//10 15//10 10//10
f 4//11 13//11 6//11
f 10//12 11//12 2//12
f 20//13 24//13 25//13
f 13//14 70//14 14//14
f 11//15 68//15 12//15
f 14//16 69//16 15//16
f 13//17 68//17 66//17
f 25//18 26//18 21//18
f 18//19 22//19 23//19
f 20//20 21//20 16//20
f 19//21 23//21 24//21
f 16//22 22//22 17//22
f 26//23 32//23 27//23
f 24//24 28//24 29//24
f 21//25 27//25 22//25
f 25//26 29//26 30//26
f 23//27 27//27 28//27
f 66//28 73//28 68//28
f 30//29 34//29 35//29
f 28//30 32//30 33//30
f 30//31 31//31 26//31
f 28//32 34//32 29//32
f 20//33 39//33 19//33
f 17//34 38//34 37//34
f 16//35 40//35 20//35
f 18//36 39//36 38//36
f 16//37 37//37 36//37
f 39//38 45//38 44//38
f 38//39 42//39 37//39
f 40//40 41//40 45//40
f 38//41 44//41 43//41
f 37//42 41//42 36//42
f 39//43 50//43 40//43
f 37//44 48//44 38//44
f 36//45 50//45 46//45
f 38//46 49//46 39//46
f 37//47 46//47 47//47
f 22//48 51//48 21//48
f 24//49 55//49 54//49
f 23//50 52//50 22//50
f 25//51 51//51 21//51
f 23//52 54//52 53//52
f 55//53 56//53 51//53
f 54//54 58//54 53//54
f 51//55 57//55 56//55
f 54//56 60//56 59//56
f 53//57 57//57 52//57
f 16//58 65//58 61//58
f 18//59 64//59 19//59
f 16//60 62//60 17//60
f 20//61 64//61 65//61
f 17//62 63//62 18//62
f 66//63 19//63 70//63
f 67//64 20//64 16//64
f 67//65 17//65 68//65
f 70//66 20//66 69//66
f 66//67 17//67 18//67
f 67//68 73//68 72//68
f 66//69 75//69 71//69
f 70//70 74//70 75//70
f 67//71 74//71 69//71
f 75//72 76//72 71//72
f 74//73 80//73 75//73
f 74//74 77//74 79//74
f 71//75 78//75 73//75
f 72//76 78//76 77//76
f 71//77 85//77 75//77
f 75//78 84//78 74//78
f 72//79 84//79 82//79
f 71//80 83//80 81//80
f 73//81 82//81 83//81
f 2//1 4//1 3//1
f 4//2 6//2 5//2
f 6//3 8//3 7//3
f 2//4 11//4 12//4
f 7//5 8//5 10//5
f 10//6 2//6 1//6
f 9//7 1//7 3//7
f 3//7 5//7 7//7
f 11//82 15//82 69//82
f 6//9 13//9 14//9
f 8//10 14//10 15//10
f 4//11 12//11 13//11
f 10//12 15//12 11//12
f 20//83 19//83 24//83
f 13//84 66//84 70//84
f 11//85 67//85 68//85
f 14//86 70//86 69//86
f 13//87 12//87 68//87
f 25//88 30//88 26//88
f 18//89 17//89 22//89
f 20//90 25//90 21//90
f 19//91 18//91 23//91
f 16//92 21//92 22//92
f 26//23 31//23 32//23
f 24//93 23//93 28//93
f 21//94 26//94 27//94
f 25//95 24//95 29//95
f 23//96 22//96 27//96
f 66//97 71//97 73//97
f 30//98 29//98 34//98
f 28//30 27//30 32//30
f 30//31 35//31 31//31
f 28//32 33//32 34//32
f 20//99 40//99 39//99
f 17//100 18//100 38//100
f 16//101 36//101 40//101
f 18//102 19//102 39//102
f 16//103 17//103 37//103
f 39//38 40//38 45//38
f 38//39 43//39 42//39
f 40//40 36//40 41//40
f 38//41 39//41 44//41
f 37//42 42//42 41//42
f 39//104 49//104 50//104
f 37//105 47//105 48//105
f 36//106 40//106 50//106
f 38//107 48//107 49//107
f 37//108 36//108 46//108
f 22//109 52//109 51//109
f 24//110 25//110 55//110
f 23//111 53//111 52//111
f 25//112 55//112 51//112
f 23//113 24//113 54//113
f 55//53 60//53 56//53
f 54//54 59//54 58//54
f 51//55 52//55 57//55
f 54//56 55//56 60//56
f 53//57 58//57 57//57
f 16//114 20//114 65//114
f 18//115 63//115 64//115
f 16//116 61//116 62//116
f 20//117 19//117 64//117
f 17//118 62//118 63//118
f 66//119 18//119 19//119
f 67//120 69//120 20//120
f 67//121 16//121 17//121
f 70//122 19//122 20//122
f 66//123 68//123 17//123
f 67//124 68//124 73//124
f 66//125 70//125 75//125
f 70//126 69//126 74//126
f 67//127 72//127 74//127
f 75//128 80//128 76//128
f 74//129 79//129 80//129
f 74//130 72//130 77//130
f 71//131 76//131 78//131
f 72//132 73//132 78//132
f 71//133 81//133 85//133
f 75//134 85//134 84//134
f 72//135 74//135 84//135
f 71//136 73//136 83//136
f 73//137 72//137 82//137
usemtl l1.001
f 86//138 87//138 88//138
f 87//139 86//139 91//139
f 86//140 88//140 89//140
f 86//141 89//141 90//141
f 86//142 90//142 91//142
f 87//143 91//143 96//143
f 88//144 87//144 92//144
f 89//145 88//145 93//145
f 90//146 89//146 94//146
f 91//147 90//147 95//147
f 87//148 96//148 92//148
f 88//149 92//149 93//149
f 89//150 93//150 94//150
f 90//151 94//151 95//151
f 91//152 95//152 96//152
f 92//153 96//153 97//153
f 93//154 92//154 97//154
f 94//155 93//155 97//155
f 95//156 94//156 97//156
f 96//157 95//157 97//157
usemtl l3.001
f 98//158 99//158 100//158
f 99//159 98//159 103//159
f 98//160 100//160 101//160
f 98//161 101//161 102//161
f 98//162 102//162 103//162
f 99//163 103//163 108//163
f 100//164 99//164 104//164
f 101//165 100//165 105//165
f 102//166 101//166 106//166
f 103//167 102//167 107//167
f 99//168 108//168 104//168
f 100//169 104//169 105//169
f 101//170 105//170 106//170
f 102//171 106//171 107//171
f 103//172 107//172 108//172
f 104//173 108//173 109//173
f 105//174 104//174 109//174
f 106//175 105//175 109//175
f 107//176 106//176 109//176
f 108//177 107//177 109//177
usemtl l4.001
f 110//178 111//178 112//178
f 111//179 110//179 115//179
f 110//180 112//180 113//180
f 110//181 113//181 114//181
f 110//182 114//182 115//182
f 111//183 115//183 120//183
f 112//184 111//184 116//184
f 113//185 112//185 117//185
f 114//186 113//186 118//186
f 115//187 114//187 119//187
f 111//188 120//188 116//188
f 112//189 116//189 117//189
f 113//190 117//190 118//190
f 114//191 118//191 119//191
f 115//192 119//192 120//192
f 116//193 120//193 121//193
f 117//194 116//194 121//194
f 118//195 117//195 121//195
f 119//196 118//196 121//196
f 120//197 119//197 121//197
usemtl l2.001
f 122//198 123//198 124//198
f 123//199 122//199 127//199
f 122//200 124//200 125//200
f 122//201 125//201 126//201
f 122//202 126//202 127//202
f 123//203 127//203 132//203
f 124//204 123//204 128//204
f 125//205 124//205 129//205
f 126//206 125//206 130//206
f 127//207 126//207 131//207
f 123//208 132//208 128//208
f 124//209 128//209 129//209
f 125//210 129//210 130//210
f 126//211 130//211 131//211
f 127//212 131//212 132//212
f 128//213 132//213 133//213
f 129//214 128//214 133//214
f 130//215 129//215 133//215
f 131//216 130//216 133//216
f 132//217 131//217 133//217
