# Blender v2.76 (sub 0) OBJ File: 'standardTree.blend'
# www.blender.org
mtllib tree.mtl
o Cube.001_Cube.002
v -0.820029 0.027163 0.814471
v -0.650984 1.796324 0.645425
v -0.820029 0.027163 -0.814471
v -0.650984 1.796324 -0.645425
v 0.808913 0.027163 0.814471
v 0.639867 1.796324 0.645425
v 0.808913 0.027163 -0.814471
v 0.639867 1.796324 -0.645425
v -0.554035 3.225367 0.548476
v -0.554035 3.225367 -0.548476
v 0.542918 3.225367 0.548476
v 0.542918 3.225367 -0.548476
v -0.390799 6.256739 0.385241
v -0.390799 6.256739 -0.385241
v 0.379683 6.256739 0.385241
v 0.379683 6.256739 -0.385241
v -0.148658 7.332057 -0.860791
v -0.148658 7.332057 -1.491996
v 0.482548 7.332057 -0.860791
v 0.482548 7.332057 -1.491996
v -1.087181 7.268331 1.338826
v -1.087181 7.268331 0.568344
v -0.316699 7.268331 1.338826
v -0.316699 7.268331 0.568344
v 0.879098 6.538452 0.781437
v 0.879098 6.538452 0.010955
v 1.649580 6.538452 0.781437
v 1.649580 6.538452 0.010955
v 1.718885 7.168390 0.860607
v 1.718885 7.168390 0.090125
v 2.489367 7.168390 0.860607
v 2.489367 7.168390 0.090125
v -0.148658 8.428189 -2.523576
v -0.148658 8.428189 -3.154782
v 0.482548 8.428189 -2.523576
v 0.482548 8.428189 -3.154782
v -1.575609 8.659430 2.854191
v -1.575609 8.659430 2.083709
v -0.805127 8.659430 2.854191
v -0.805127 8.659430 2.083709
v 1.872946 7.703570 0.939791
v 1.872946 7.703570 0.169309
v 2.643428 7.703570 0.939791
v 2.643428 7.703570 0.169309
v 0.357041 7.179272 -3.832883
v 2.064540 8.483693 -2.592327
v -0.295152 8.483693 -1.825604
v -1.753557 8.483693 -3.832883
v -0.295152 8.483693 -5.840161
v 2.064540 8.483693 -5.073438
v 1.009234 10.594304 -1.825604
v -1.350457 10.594304 -2.592327
v -1.350457 10.594304 -5.073438
v 1.009234 10.594304 -5.840161
v 2.467640 10.594304 -3.832883
v 0.357041 11.898726 -3.832883
v 3.522341 6.194752 0.548593
v 5.163449 7.448456 1.740914
v 2.895506 7.448456 2.477826
v 1.493806 7.448456 0.548593
v 2.895506 7.448456 -1.380639
v 5.163449 7.448456 -0.643728
v 4.149176 9.477003 2.477826
v 1.881233 9.477003 1.740914
v 1.881233 9.477003 -0.643728
v 4.149176 9.477003 -1.380639
v 5.550877 9.477003 0.548593
v 3.522341 10.730706 0.548593
v -0.986089 7.289533 3.198842
v 0.277599 8.254910 4.116954
v -1.468765 8.254910 4.684391
v -2.548103 8.254910 3.198842
v -1.468765 8.254910 1.713293
v 0.277599 8.254910 2.280730
v -0.503413 9.816934 4.684391
v -2.249776 9.816934 4.116954
v -2.249776 9.816934 2.280730
v -0.503413 9.816934 1.713293
v 0.575925 9.816934 3.198842
v -0.986089 10.782311 3.198842
vn -0.995500 0.095100 -0.000000
vn 0.000000 0.095100 -0.995500
vn 0.995500 0.095100 0.000000
vn -0.000000 0.095100 0.995500
vn 0.000000 -1.000000 0.000000
vn 0.000000 0.067700 0.997700
vn 0.000000 0.053800 0.998600
vn 0.997700 0.067700 0.000000
vn -0.000000 0.067700 -0.997700
vn -0.997700 0.067700 -0.000000
vn -0.000000 0.757100 0.653300
vn -0.998600 0.053800 0.000000
vn -0.000000 0.053800 -0.998600
vn 0.998600 0.053800 -0.000000
vn 0.000000 0.834900 0.550400
vn -0.975600 0.219700 -0.000000
vn 0.000000 -0.717200 -0.696800
vn 0.995500 -0.095200 0.000000
vn 0.000000 0.685900 -0.727700
vn 0.823700 0.567000 0.000000
vn -0.000000 -0.685900 0.727700
vn -0.823700 -0.567000 0.000000
vn 0.000000 -0.815000 0.579500
vn -0.216600 0.976300 0.000000
vn 0.000000 0.815000 -0.579500
vn 0.216600 -0.976300 -0.000000
vn -0.000000 -0.124700 0.992200
vn -0.600100 0.800000 -0.000000
vn -0.000000 0.124700 -0.992200
vn 0.600100 -0.800000 0.000000
vn 0.000000 1.000000 -0.000000
vn -1.000000 0.000000 0.000000
vn -0.000000 -0.834900 -0.550400
vn 1.000000 -0.000000 0.000000
vn 0.000000 0.736700 -0.676300
vn 0.943500 0.331300 0.000000
vn 0.000000 -0.736700 0.676300
vn -0.943500 -0.331300 0.000000
vn -0.000000 -0.146400 0.989200
vn -0.961000 0.276600 0.000000
vn 0.000000 0.146400 -0.989200
vn 0.961000 -0.276600 -0.000000
vn 0.187600 -0.794700 0.577400
vn 0.607100 -0.794700 -0.000000
vn -0.491100 -0.794700 0.356800
vn -0.491100 -0.794700 -0.356800
vn 0.187600 -0.794700 -0.577400
vn 0.982200 -0.187600 -0.000000
vn 0.303500 -0.187600 0.934200
vn -0.794600 -0.187600 0.577400
vn -0.794600 -0.187600 -0.577400
vn 0.303500 -0.187600 -0.934200
vn 0.794600 0.187600 0.577400
vn -0.303500 0.187600 0.934200
vn -0.982200 0.187600 -0.000000
vn -0.303500 0.187600 -0.934200
vn 0.794600 0.187600 -0.577400
vn 0.491100 0.794700 0.356800
vn -0.187600 0.794700 0.577400
vn -0.607100 0.794700 0.000000
vn -0.187600 0.794700 -0.577400
vn 0.491100 0.794700 -0.356800
usemtl wood.001
s off
f 4//1 3//1 1//1
f 8//2 7//2 3//2
f 6//3 5//3 7//3
f 2//4 1//4 5//4
f 3//5 7//5 5//5
f 6//6 11//6 9//6
f 11//7 15//7 13//7
f 8//8 12//8 11//8
f 4//9 10//9 12//9
f 2//10 9//10 10//10
f 15//11 19//11 17//11
f 9//12 13//12 14//12
f 10//13 14//13 16//13
f 12//14 16//14 15//14
f 19//15 35//15 33//15
f 14//16 13//16 17//16
f 16//17 14//17 18//17
f 16//18 20//18 19//18
f 13//19 21//19 23//19
f 13//20 14//20 22//20
f 14//21 16//21 24//21
f 15//22 23//22 24//22
f 15//23 27//23 25//23
f 13//24 25//24 26//24
f 16//25 14//25 26//25
f 15//26 16//26 28//26
f 27//27 31//27 29//27
f 25//28 29//28 30//28
f 28//29 26//29 30//29
f 27//30 28//30 32//30
f 36//31 34//31 33//31
f 18//32 17//32 33//32
f 18//33 34//33 36//33
f 20//34 36//34 35//34
f 21//35 37//35 39//35
f 21//36 22//36 38//36
f 22//37 24//37 40//37
f 23//38 39//38 40//38
f 31//39 43//39 41//39
f 29//40 41//40 42//40
f 32//41 30//41 42//41
f 31//42 32//42 44//42
f 2//1 4//1 1//1
f 4//2 8//2 3//2
f 8//3 6//3 7//3
f 6//4 2//4 5//4
f 1//5 3//5 5//5
f 2//6 6//6 9//6
f 9//7 11//7 13//7
f 6//8 8//8 11//8
f 8//9 4//9 12//9
f 4//10 2//10 10//10
f 13//11 15//11 17//11
f 10//12 9//12 14//12
f 12//13 10//13 16//13
f 11//14 12//14 15//14
f 17//15 19//15 33//15
f 18//16 14//16 17//16
f 20//17 16//17 18//17
f 15//18 16//18 19//18
f 15//19 13//19 23//19
f 21//20 13//20 22//20
f 22//21 14//21 24//21
f 16//22 15//22 24//22
f 13//23 15//23 25//23
f 14//24 13//24 26//24
f 28//25 16//25 26//25
f 27//26 15//26 28//26
f 25//27 27//27 29//27
f 26//28 25//28 30//28
f 32//29 28//29 30//29
f 31//30 27//30 32//30
f 35//31 36//31 33//31
f 34//32 18//32 33//32
f 20//33 18//33 36//33
f 19//34 20//34 35//34
f 23//35 21//35 39//35
f 37//36 21//36 38//36
f 38//37 22//37 40//37
f 24//38 23//38 40//38
f 29//39 31//39 41//39
f 30//40 29//40 42//40
f 44//41 32//41 42//41
f 43//42 31//42 44//42
usemtl leaves3.001
f 45//43 46//43 47//43
f 46//44 45//44 50//44
f 45//45 47//45 48//45
f 45//46 48//46 49//46
f 45//47 49//47 50//47
f 46//48 50//48 55//48
f 47//49 46//49 51//49
f 48//50 47//50 52//50
f 49//51 48//51 53//51
f 50//52 49//52 54//52
f 46//53 55//53 51//53
f 47//54 51//54 52//54
f 48//55 52//55 53//55
f 49//56 53//56 54//56
f 50//57 54//57 55//57
f 51//58 55//58 56//58
f 52//59 51//59 56//59
f 53//60 52//60 56//60
f 54//61 53//61 56//61
f 55//62 54//62 56//62
usemtl leaves2.001
f 57//43 58//43 59//43
f 58//44 57//44 62//44
f 57//45 59//45 60//45
f 57//46 60//46 61//46
f 57//47 61//47 62//47
f 58//48 62//48 67//48
f 59//49 58//49 63//49
f 60//50 59//50 64//50
f 61//51 60//51 65//51
f 62//52 61//52 66//52
f 58//53 67//53 63//53
f 59//54 63//54 64//54
f 60//55 64//55 65//55
f 61//56 65//56 66//56
f 62//57 66//57 67//57
f 63//58 67//58 68//58
f 64//59 63//59 68//59
f 65//60 64//60 68//60
f 66//61 65//61 68//61
f 67//62 66//62 68//62
usemtl leaves1.001
f 69//43 70//43 71//43
f 70//44 69//44 74//44
f 69//45 71//45 72//45
f 69//46 72//46 73//46
f 69//47 73//47 74//47
f 70//48 74//48 79//48
f 71//49 70//49 75//49
f 72//50 71//50 76//50
f 73//51 72//51 77//51
f 74//52 73//52 78//52
f 70//53 79//53 75//53
f 71//54 75//54 76//54
f 72//55 76//55 77//55
f 73//56 77//56 78//56
f 74//57 78//57 79//57
f 75//58 79//58 80//58
f 76//59 75//59 80//59
f 77//60 76//60 80//60
f 78//61 77//61 80//61
f 79//62 78//62 80//62
